<svg xmlns="http://www.w3.org/2000/svg" viewBox="0 0 510 320" width="510" height="320">
  <!-- Astraeusio logo — full lockup. Text outlined to paths (no font deps). -->
  <!-- ===== DARK variant ===== -->
  <g transform="translate(0,0)">
    <rect x="0" y="0" width="510" height="100" fill="#0D1421"/>
    <!-- corona glow -->
    <circle cx="52" cy="50" r="24" fill="#D97706" opacity="0.07"/>
    <circle cx="52" cy="50" r="18" fill="#D97706" opacity="0.12"/>
    <!-- sun -->
    <circle cx="52" cy="50" r="11" fill="#D97706"/>
    <circle cx="52" cy="50" r="6.5" fill="#FAC775" opacity="0.4"/>
    <!-- orbit ring -->
    <circle cx="52" cy="50" r="29" fill="none" stroke="rgba(255,255,255,0.14)" stroke-width="0.8"/>
    <!-- alert arc -->
    <path d="M 57.0 21.4 A 29 29 0 0 1 80.6 45.0" fill="none" stroke="#D97706" stroke-width="2.2" stroke-linecap="round" opacity="0.65"/>
    <!-- earth -->
    <circle cx="72.5" cy="29.5" r="3.5" fill="#8FBCD4" opacity="1"/>
    <!-- CME indicator -->
    <line x1="59.8" y1="42.2" x2="66.5" y2="35.5" stroke="#D97706" stroke-width="1.2" stroke-linecap="round" opacity="0.45"/>
    <!-- wordmark (outlined) -->
    <path d="M123.10 42.83H113.75L112.18 46.00H107.12L115.90 29.23H120.95L129.73 46.00H124.68ZM115.37 39.55H121.50L118.45 33.38ZM154.93 33.95Q154.45 33.72 153.67 33.43Q152.89 33.13 151.90 32.87Q150.91 32.61 149.75 32.43Q148.59 32.25 147.37 32.25Q146.40 32.25 145.71 32.32Q145.02 32.38 144.55 32.47Q144.08 32.57 143.80 32.70Q143.53 32.83 143.38 32.96Q143.24 33.10 143.19 33.23Q143.15 33.37 143.15 33.48Q143.15 33.84 143.52 34.12Q143.88 34.39 144.52 34.60Q145.15 34.82 145.99 35.01Q146.84 35.20 147.78 35.40Q148.73 35.60 149.74 35.84Q150.74 36.08 151.69 36.39Q152.64 36.71 153.48 37.13Q154.32 37.55 154.95 38.11Q155.59 38.68 155.96 39.41Q156.32 40.14 156.32 41.08Q156.32 42.29 155.89 43.16Q155.47 44.02 154.75 44.62Q154.04 45.22 153.10 45.58Q152.16 45.94 151.13 46.13Q150.10 46.33 149.04 46.39Q147.98 46.45 147.03 46.45Q144.54 46.45 142.42 46.04Q140.31 45.63 138.68 45.02V41.02Q140.35 41.95 142.50 42.47Q144.64 43.00 147.08 43.00Q148.52 43.00 149.43 42.84Q150.34 42.69 150.85 42.45Q151.37 42.22 151.55 41.94Q151.73 41.65 151.73 41.40Q151.73 41.00 151.37 40.70Q151.00 40.40 150.36 40.17Q149.73 39.95 148.89 39.76Q148.05 39.57 147.10 39.38Q146.15 39.19 145.15 38.97Q144.15 38.75 143.21 38.45Q142.26 38.15 141.42 37.75Q140.57 37.36 139.94 36.81Q139.31 36.27 138.94 35.56Q138.57 34.84 138.57 33.90Q138.57 32.79 138.96 31.99Q139.35 31.18 140.02 30.61Q140.68 30.05 141.56 29.69Q142.43 29.34 143.39 29.14Q144.36 28.95 145.35 28.87Q146.34 28.80 147.23 28.80Q148.20 28.80 149.24 28.90Q150.27 29.00 151.27 29.17Q152.27 29.35 153.20 29.58Q154.14 29.81 154.93 30.07ZM177.01 32.88V46.00H172.48V32.88H165.36V29.23H184.13V32.88ZM198.65 46.00H194.13V29.23H205.48Q207.31 29.23 208.58 29.61Q209.86 29.98 210.66 30.68Q211.46 31.38 211.82 32.36Q212.18 33.34 212.18 34.55Q212.18 35.61 211.88 36.41Q211.58 37.20 211.07 37.77Q210.57 38.33 209.90 38.72Q209.23 39.12 208.48 39.37L213.97 46.00H208.68L203.60 39.82H198.65ZM207.60 34.53Q207.60 34.04 207.47 33.70Q207.35 33.35 207.03 33.14Q206.71 32.93 206.18 32.83Q205.65 32.73 204.86 32.73H198.65V36.32H204.86Q205.65 36.32 206.18 36.22Q206.71 36.12 207.03 35.91Q207.35 35.70 207.47 35.36Q207.60 35.01 207.60 34.53ZM237.70 42.83H228.35L226.77 46.00H221.72L230.50 29.23H235.55L244.33 46.00H239.27ZM229.97 39.55H236.10L233.05 33.38ZM254.07 46.00V29.23H271.05V32.80H258.72V35.58H270.42V39.15H258.72V42.42H271.22V46.00ZM302.39 40.35Q302.39 41.61 301.77 42.72Q301.15 43.83 299.90 44.66Q298.66 45.49 296.80 45.97Q294.94 46.45 292.44 46.45Q289.95 46.45 288.08 45.97Q286.21 45.49 284.96 44.66Q283.72 43.83 283.09 42.72Q282.47 41.61 282.47 40.35V29.23H286.99V38.72Q286.99 39.57 287.20 40.32Q287.42 41.07 288.01 41.63Q288.60 42.19 289.67 42.52Q290.74 42.85 292.44 42.85Q294.14 42.85 295.20 42.52Q296.27 42.19 296.86 41.63Q297.45 41.07 297.66 40.32Q297.86 39.57 297.86 38.72V29.23H302.39V40.35ZM329.97 33.95Q329.50 33.72 328.72 33.43Q327.94 33.13 326.95 32.87Q325.96 32.61 324.80 32.43Q323.64 32.25 322.42 32.25Q321.44 32.25 320.75 32.32Q320.06 32.38 319.59 32.47Q319.12 32.57 318.85 32.70Q318.57 32.83 318.43 32.96Q318.28 33.10 318.24 33.23Q318.19 33.37 318.19 33.48Q318.19 33.84 318.56 34.12Q318.93 34.39 319.56 34.60Q320.20 34.82 321.04 35.01Q321.88 35.20 322.83 35.40Q323.77 35.60 324.78 35.84Q325.79 36.08 326.73 36.39Q327.68 36.71 328.52 37.13Q329.36 37.55 330.00 38.11Q330.63 38.68 331.00 39.41Q331.37 40.14 331.37 41.08Q331.37 42.29 330.94 43.16Q330.51 44.02 329.80 44.62Q329.08 45.22 328.14 45.58Q327.20 45.94 326.17 46.13Q325.14 46.33 324.08 46.39Q323.03 46.45 322.08 46.45Q319.59 46.45 317.47 46.04Q315.35 45.63 313.73 45.02V41.02Q315.40 41.95 317.54 42.47Q319.68 43.00 322.13 43.00Q323.57 43.00 324.48 42.84Q325.38 42.69 325.90 42.45Q326.41 42.22 326.59 41.94Q326.78 41.65 326.78 41.40Q326.78 41.00 326.41 40.70Q326.04 40.40 325.41 40.17Q324.77 39.95 323.93 39.76Q323.09 39.57 322.14 39.38Q321.20 39.19 320.20 38.97Q319.20 38.75 318.25 38.45Q317.30 38.15 316.46 37.75Q315.62 37.36 314.98 36.81Q314.35 36.27 313.98 35.56Q313.62 34.84 313.62 33.90Q313.62 32.79 314.01 31.99Q314.40 31.18 315.06 30.61Q315.73 30.05 316.60 29.69Q317.47 29.34 318.44 29.14Q319.40 28.95 320.39 28.87Q321.38 28.80 322.27 28.80Q323.25 28.80 324.28 28.90Q325.31 29.00 326.31 29.17Q327.31 29.35 328.25 29.58Q329.18 29.81 329.97 30.07ZM342.65 46.00V29.23H347.18V46.00ZM381.13 37.63Q381.13 39.79 380.34 41.44Q379.55 43.09 378.07 44.21Q376.59 45.32 374.49 45.88Q372.38 46.45 369.76 46.45Q367.13 46.45 365.01 45.88Q362.90 45.32 361.41 44.21Q359.92 43.09 359.11 41.44Q358.31 39.79 358.31 37.63Q358.31 35.47 359.11 33.81Q359.92 32.16 361.41 31.05Q362.90 29.94 365.01 29.37Q367.13 28.80 369.76 28.80Q372.38 28.80 374.49 29.37Q376.59 29.94 378.07 31.05Q379.55 32.16 380.34 33.81Q381.13 35.47 381.13 37.63ZM376.56 37.63Q376.56 36.69 376.26 35.75Q375.96 34.82 375.19 34.07Q374.43 33.33 373.11 32.87Q371.79 32.40 369.76 32.40Q368.39 32.40 367.35 32.61Q366.31 32.83 365.56 33.21Q364.80 33.59 364.29 34.09Q363.77 34.60 363.47 35.18Q363.16 35.76 363.04 36.39Q362.91 37.02 362.91 37.63Q362.91 38.25 363.04 38.88Q363.16 39.52 363.47 40.10Q363.77 40.68 364.29 41.18Q364.80 41.68 365.56 42.05Q366.31 42.42 367.35 42.64Q368.39 42.85 369.76 42.85Q371.79 42.85 373.11 42.39Q374.43 41.92 375.19 41.18Q375.96 40.43 376.26 39.50Q376.56 38.57 376.56 37.63Z" fill="#FFFFFF"/>
    <!-- rule -->
    <line x1="107" y1="57" x2="494" y2="57" stroke="rgba(255,255,255,0.08)" stroke-width="0.5"/>
    <!-- tagline (outlined) -->
    <path d="M108.51 69.43V69.14Q108.51 69.05 108.60 69.05H108.88Q108.97 69.05 108.97 69.14V69.41Q108.97 69.97 109.43 70.31Q109.89 70.65 110.69 70.65Q111.44 70.65 111.83 70.34Q112.23 70.03 112.23 69.48Q112.23 69.15 112.05 68.90Q111.88 68.65 111.51 68.44Q111.15 68.22 110.48 67.94Q109.78 67.64 109.43 67.44Q109.07 67.25 108.85 66.95Q108.64 66.64 108.64 66.17Q108.64 65.43 109.15 65.03Q109.66 64.63 110.56 64.63Q111.54 64.63 112.09 65.08Q112.65 65.53 112.65 66.28V66.49Q112.65 66.58 112.56 66.58H112.27Q112.18 66.58 112.18 66.49V66.31Q112.18 65.74 111.74 65.40Q111.31 65.05 110.53 65.05Q109.84 65.05 109.48 65.33Q109.11 65.62 109.11 66.15Q109.11 66.51 109.28 66.73Q109.45 66.96 109.77 67.13Q110.09 67.29 110.75 67.56Q111.42 67.83 111.83 68.08Q112.24 68.33 112.47 68.66Q112.71 68.99 112.71 69.46Q112.71 70.19 112.17 70.63Q111.63 71.07 110.66 71.07Q109.67 71.07 109.09 70.63Q108.51 70.18 108.51 69.43ZM122.40 66.40Q122.40 67.17 121.92 67.63Q121.45 68.10 120.68 68.10H118.81Q118.77 68.10 118.77 68.14V70.91Q118.77 71.00 118.68 71.00H118.38Q118.29 71.00 118.29 70.91V64.77Q118.29 64.68 118.38 64.68H120.70Q121.46 64.68 121.93 65.15Q122.40 65.63 122.40 66.40ZM121.92 66.41Q121.92 65.83 121.57 65.47Q121.23 65.11 120.66 65.11H118.81Q118.77 65.11 118.77 65.15V67.66Q118.77 67.70 118.81 67.70H120.66Q121.23 67.70 121.57 67.34Q121.92 66.99 121.92 66.41ZM131.43 70.93 131.04 69.73Q131.03 69.70 131.01 69.70H128.20Q128.17 69.70 128.16 69.73L127.79 70.93Q127.76 71.00 127.68 71.00H127.36Q127.26 71.00 127.29 70.90L129.29 64.77Q129.31 64.70 129.40 64.70H129.80Q129.88 64.70 129.91 64.77L131.92 70.90L131.93 70.94Q131.93 71.00 131.84 71.00H131.54Q131.46 71.00 131.43 70.93ZM128.34 69.31H130.86Q130.88 69.31 130.89 69.29Q130.91 69.28 130.90 69.26L129.63 65.35Q129.62 65.33 129.60 65.33Q129.59 65.33 129.58 65.35L128.31 69.26Q128.30 69.28 128.31 69.29Q128.33 69.31 128.34 69.31ZM137.17 69.13V66.56Q137.17 65.99 137.43 65.55Q137.68 65.11 138.15 64.87Q138.62 64.63 139.23 64.63Q139.83 64.63 140.30 64.87Q140.77 65.11 141.03 65.54Q141.28 65.97 141.28 66.54V66.55Q141.28 66.59 141.25 66.62Q141.23 66.64 141.19 66.64L140.90 66.66Q140.81 66.66 140.81 66.57V66.55Q140.81 65.87 140.37 65.46Q139.94 65.05 139.23 65.05Q138.51 65.05 138.08 65.46Q137.65 65.87 137.65 66.55V69.16Q137.65 69.83 138.08 70.24Q138.52 70.66 139.23 70.66Q139.94 70.66 140.37 70.24Q140.81 69.83 140.81 69.16V69.14Q140.81 69.06 140.90 69.06L141.19 69.07Q141.28 69.07 141.28 69.16Q141.28 69.72 141.03 70.16Q140.77 70.59 140.30 70.84Q139.83 71.08 139.23 71.08Q138.62 71.08 138.15 70.84Q137.68 70.59 137.43 70.15Q137.17 69.70 137.17 69.13ZM150.96 65.12H147.55Q147.52 65.12 147.52 65.16V67.59Q147.52 67.62 147.55 67.62H149.97Q150.06 67.62 150.06 67.72V67.96Q150.06 68.05 149.97 68.05H147.55Q147.52 68.05 147.52 68.08V70.54Q147.52 70.58 147.55 70.58H150.96Q151.05 70.58 151.05 70.67V70.91Q151.05 71.00 150.96 71.00H147.13Q147.04 71.00 147.04 70.91V64.79Q147.04 64.70 147.13 64.70H150.96Q151.05 64.70 151.05 64.79V65.03Q151.05 65.12 150.96 65.12ZM163.84 70.93 162.08 64.80 162.07 64.77Q162.07 64.70 162.16 64.70H162.47Q162.54 64.70 162.57 64.77L164.06 70.02Q164.07 70.04 164.08 70.04Q164.10 70.04 164.11 70.02L165.49 64.78Q165.51 64.70 165.59 64.70H165.91Q165.99 64.70 166.01 64.78L167.44 70.02Q167.45 70.04 167.46 70.04Q167.47 70.04 167.48 70.02L168.99 64.77Q169.02 64.70 169.09 64.70H169.38Q169.43 64.70 169.45 64.73Q169.47 64.75 169.46 64.80L167.71 70.93Q167.68 71.00 167.61 71.00H167.29Q167.21 71.00 167.19 70.92L165.78 65.58Q165.77 65.56 165.76 65.56Q165.74 65.56 165.74 65.58L164.33 70.92Q164.31 71.00 164.23 71.00H163.94Q163.86 71.00 163.84 70.93ZM178.77 65.12H175.36Q175.33 65.12 175.33 65.16V67.59Q175.33 67.62 175.36 67.62H177.78Q177.87 67.62 177.87 67.72V67.96Q177.87 68.05 177.78 68.05H175.36Q175.33 68.05 175.33 68.08V70.54Q175.33 70.58 175.36 70.58H178.77Q178.86 70.58 178.86 70.67V70.91Q178.86 71.00 178.77 71.00H174.94Q174.85 71.00 174.85 70.91V64.79Q174.85 64.70 174.94 64.70H178.77Q178.86 64.70 178.86 64.79V65.03Q178.86 65.12 178.77 65.12ZM188.11 70.93 187.73 69.73Q187.72 69.70 187.69 69.70H184.88Q184.85 69.70 184.85 69.73L184.47 70.93Q184.44 71.00 184.36 71.00H184.04Q183.95 71.00 183.97 70.90L185.97 64.77Q186.00 64.70 186.08 64.70H186.48Q186.56 64.70 186.59 64.77L188.60 70.90L188.61 70.94Q188.61 71.00 188.53 71.00H188.22Q188.14 71.00 188.11 70.93ZM185.03 69.31H187.55Q187.56 69.31 187.58 69.29Q187.59 69.28 187.58 69.26L186.31 65.35Q186.30 65.33 186.29 65.33Q186.27 65.33 186.26 65.35L184.99 69.26Q184.98 69.28 184.99 69.29Q185.01 69.31 185.03 69.31ZM197.80 64.79V65.03Q197.80 65.12 197.71 65.12H195.91Q195.88 65.12 195.88 65.16V70.91Q195.88 71.00 195.79 71.00H195.49Q195.40 71.00 195.40 70.91V65.16Q195.40 65.12 195.36 65.12H193.65Q193.56 65.12 193.56 65.03V64.79Q193.56 64.70 193.65 64.70H197.71Q197.80 64.70 197.80 64.79ZM207.08 64.70H207.38Q207.47 64.70 207.47 64.79V70.91Q207.47 71.00 207.38 71.00H207.08Q206.99 71.00 206.99 70.91V68.08Q206.99 68.05 206.95 68.05H203.86Q203.82 68.05 203.82 68.08V70.91Q203.82 71.00 203.73 71.00H203.43Q203.34 71.00 203.34 70.91V64.79Q203.34 64.70 203.43 64.70H203.73Q203.82 64.70 203.82 64.79V67.59Q203.82 67.62 203.86 67.62H206.95Q206.99 67.62 206.99 67.59V64.79Q206.99 64.70 207.08 64.70ZM217.42 65.12H214.01Q213.97 65.12 213.97 65.16V67.59Q213.97 67.62 214.01 67.62H216.43Q216.52 67.62 216.52 67.72V67.96Q216.52 68.05 216.43 68.05H214.01Q213.97 68.05 213.97 68.08V70.54Q213.97 70.58 214.01 70.58H217.42Q217.51 70.58 217.51 70.67V70.91Q217.51 71.00 217.42 71.00H213.58Q213.49 71.00 213.49 70.91V64.79Q213.49 64.70 213.58 64.70H217.42Q217.51 64.70 217.51 64.79V65.03Q217.51 65.12 217.42 65.12ZM226.82 70.94 225.44 68.08Q225.43 68.05 225.41 68.05H223.70Q223.67 68.05 223.67 68.08V70.91Q223.67 71.00 223.58 71.00H223.28Q223.19 71.00 223.19 70.91V64.79Q223.19 64.70 223.28 64.70H225.55Q226.31 64.70 226.77 65.17Q227.23 65.64 227.23 66.39Q227.23 67.03 226.88 67.47Q226.53 67.90 225.94 68.01Q225.89 68.03 225.91 68.06L227.29 70.89Q227.30 70.91 227.30 70.94Q227.30 71.00 227.22 71.00H226.93Q226.85 71.00 226.82 70.94ZM223.67 65.16V67.62Q223.67 67.65 223.70 67.65H225.50Q226.06 67.65 226.41 67.30Q226.76 66.95 226.76 66.39Q226.76 65.83 226.41 65.47Q226.06 65.12 225.50 65.12H223.70Q223.67 65.12 223.67 65.16ZM238.90 70.91V64.79Q238.90 64.70 238.99 64.70H239.29Q239.38 64.70 239.38 64.79V70.91Q239.38 71.00 239.29 71.00H238.99Q238.90 71.00 238.90 70.91ZM249.31 64.70H249.61Q249.70 64.70 249.70 64.79V70.91Q249.70 71.00 249.61 71.00H249.31Q249.25 71.00 249.20 70.94L245.94 65.65Q245.93 65.63 245.92 65.63Q245.90 65.64 245.90 65.66V70.91Q245.90 71.00 245.81 71.00H245.51Q245.42 71.00 245.42 70.91V64.79Q245.42 64.70 245.51 64.70H245.82Q245.88 64.70 245.93 64.76L249.17 70.05Q249.18 70.07 249.20 70.07Q249.22 70.06 249.22 70.04V64.79Q249.22 64.70 249.31 64.70ZM259.48 64.79V65.03Q259.48 65.12 259.39 65.12H257.59Q257.55 65.12 257.55 65.16V70.91Q257.55 71.00 257.46 71.00H257.16Q257.07 71.00 257.07 70.91V65.16Q257.07 65.12 257.04 65.12H255.33Q255.24 65.12 255.24 65.03V64.79Q255.24 64.70 255.33 64.70H259.39Q259.48 64.70 259.48 64.79ZM268.94 65.12H265.53Q265.49 65.12 265.49 65.16V67.59Q265.49 67.62 265.53 67.62H267.95Q268.04 67.62 268.04 67.72V67.96Q268.04 68.05 267.95 68.05H265.53Q265.49 68.05 265.49 68.08V70.54Q265.49 70.58 265.53 70.58H268.94Q269.03 70.58 269.03 70.67V70.91Q269.03 71.00 268.94 71.00H265.11Q265.02 71.00 265.02 70.91V64.79Q265.02 64.70 265.11 64.70H268.94Q269.03 64.70 269.03 64.79V65.03Q269.03 65.12 268.94 65.12ZM274.72 70.91V64.79Q274.72 64.70 274.81 64.70H275.10Q275.19 64.70 275.19 64.79V70.54Q275.19 70.58 275.23 70.58H278.46Q278.55 70.58 278.55 70.67V70.91Q278.55 71.00 278.46 71.00H274.81Q274.72 71.00 274.72 70.91ZM284.02 70.91V64.79Q284.02 64.70 284.11 64.70H284.41Q284.50 64.70 284.50 64.79V70.54Q284.50 70.58 284.53 70.58H287.76Q287.85 70.58 287.85 70.67V70.91Q287.85 71.00 287.76 71.00H284.11Q284.02 71.00 284.02 70.91ZM293.32 70.91V64.79Q293.32 64.70 293.41 64.70H293.71Q293.80 64.70 293.80 64.79V70.91Q293.80 71.00 293.71 71.00H293.41Q293.32 71.00 293.32 70.91ZM299.64 69.15V66.55Q299.64 65.98 299.89 65.54Q300.15 65.11 300.62 64.87Q301.09 64.63 301.70 64.63Q302.30 64.63 302.76 64.87Q303.23 65.11 303.48 65.53Q303.74 65.95 303.74 66.50V66.63Q303.74 66.72 303.65 66.72H303.35Q303.26 66.72 303.26 66.63V66.51Q303.26 65.86 302.83 65.46Q302.40 65.05 301.70 65.05Q300.99 65.05 300.55 65.46Q300.11 65.87 300.11 66.54V69.16Q300.11 69.83 300.55 70.24Q300.99 70.65 301.71 70.65Q302.41 70.65 302.84 70.26Q303.26 69.87 303.26 69.22V68.31Q303.26 68.27 303.23 68.27H301.82Q301.73 68.27 301.73 68.18V67.94Q301.73 67.85 301.82 67.85H303.65Q303.74 67.85 303.74 67.94V69.11Q303.74 70.02 303.18 70.55Q302.63 71.07 301.70 71.07Q301.09 71.07 300.62 70.83Q300.15 70.59 299.89 70.15Q299.64 69.71 299.64 69.15ZM313.49 65.12H310.08Q310.05 65.12 310.05 65.16V67.59Q310.05 67.62 310.08 67.62H312.50Q312.59 67.62 312.59 67.72V67.96Q312.59 68.05 312.50 68.05H310.08Q310.05 68.05 310.05 68.08V70.54Q310.05 70.58 310.08 70.58H313.49Q313.58 70.58 313.58 70.67V70.91Q313.58 71.00 313.49 71.00H309.66Q309.57 71.00 309.57 70.91V64.79Q309.57 64.70 309.66 64.70H313.49Q313.58 64.70 313.58 64.79V65.03Q313.58 65.12 313.49 65.12ZM323.16 64.70H323.45Q323.54 64.70 323.54 64.79V70.91Q323.54 71.00 323.45 71.00H323.16Q323.09 71.00 323.05 70.94L319.79 65.65Q319.78 65.63 319.76 65.63Q319.75 65.64 319.75 65.66V70.91Q319.75 71.00 319.66 71.00H319.36Q319.27 71.00 319.27 70.91V64.79Q319.27 64.70 319.36 64.70H319.67Q319.73 64.70 319.77 64.76L323.02 70.05Q323.03 70.07 323.05 70.07Q323.07 70.06 323.07 70.04V64.79Q323.07 64.70 323.16 64.70ZM329.37 69.13V66.56Q329.37 65.99 329.63 65.55Q329.89 65.11 330.35 64.87Q330.82 64.63 331.43 64.63Q332.04 64.63 332.50 64.87Q332.97 65.11 333.23 65.54Q333.49 65.97 333.49 66.54V66.55Q333.49 66.59 333.46 66.62Q333.43 66.64 333.40 66.64L333.10 66.66Q333.01 66.66 333.01 66.57V66.55Q333.01 65.87 332.58 65.46Q332.15 65.05 331.43 65.05Q330.71 65.05 330.28 65.46Q329.85 65.87 329.85 66.55V69.16Q329.85 69.83 330.29 70.24Q330.72 70.66 331.43 70.66Q332.15 70.66 332.58 70.24Q333.01 69.83 333.01 69.16V69.14Q333.01 69.06 333.10 69.06L333.40 69.07Q333.49 69.07 333.49 69.16Q333.49 69.72 333.23 70.16Q332.97 70.59 332.50 70.84Q332.04 71.08 331.43 71.08Q330.82 71.08 330.35 70.84Q329.89 70.59 329.63 70.15Q329.37 69.70 329.37 69.13ZM343.17 65.12H339.76Q339.72 65.12 339.72 65.16V67.59Q339.72 67.62 339.76 67.62H342.18Q342.27 67.62 342.27 67.72V67.96Q342.27 68.05 342.18 68.05H339.76Q339.72 68.05 339.72 68.08V70.54Q339.72 70.58 339.76 70.58H343.17Q343.26 70.58 343.26 70.67V70.91Q343.26 71.00 343.17 71.00H339.33Q339.24 71.00 339.24 70.91V64.79Q339.24 64.70 339.33 64.70H343.17Q343.26 64.70 343.26 64.79V65.03Q343.26 65.12 343.17 65.12Z" fill="#FFFFFF" opacity="0.48"/>
  </g>
  <!-- ===== LIGHT variant ===== -->
  <g transform="translate(0,110)">
    <rect x="0" y="0" width="510" height="100" fill="#F2F0EB"/>
    <!-- corona glow -->
    <circle cx="52" cy="50" r="24" fill="#D97706" opacity="0.07"/>
    <circle cx="52" cy="50" r="18" fill="#D97706" opacity="0.12"/>
    <!-- sun -->
    <circle cx="52" cy="50" r="11" fill="#B45309"/>
    <circle cx="52" cy="50" r="6.5" fill="#D97706" opacity="0.4"/>
    <!-- orbit ring -->
    <circle cx="52" cy="50" r="29" fill="none" stroke="rgba(0,0,0,0.13)" stroke-width="0.8"/>
    <!-- alert arc -->
    <path d="M 57.0 21.4 A 29 29 0 0 1 80.6 45.0" fill="none" stroke="#B45309" stroke-width="2.2" stroke-linecap="round" opacity="0.6"/>
    <!-- earth -->
    <circle cx="72.5" cy="29.5" r="3.5" fill="#8FBCD4" opacity="0.85"/>
    <!-- CME indicator -->
    <line x1="59.8" y1="42.2" x2="66.5" y2="35.5" stroke="#B45309" stroke-width="1.2" stroke-linecap="round" opacity="0.45"/>
    <!-- wordmark (outlined) -->
    <path d="M123.10 42.83H113.75L112.18 46.00H107.12L115.90 29.23H120.95L129.73 46.00H124.68ZM115.37 39.55H121.50L118.45 33.38ZM154.93 33.95Q154.45 33.72 153.67 33.43Q152.89 33.13 151.90 32.87Q150.91 32.61 149.75 32.43Q148.59 32.25 147.37 32.25Q146.40 32.25 145.71 32.32Q145.02 32.38 144.55 32.47Q144.08 32.57 143.80 32.70Q143.53 32.83 143.38 32.96Q143.24 33.10 143.19 33.23Q143.15 33.37 143.15 33.48Q143.15 33.84 143.52 34.12Q143.88 34.39 144.52 34.60Q145.15 34.82 145.99 35.01Q146.84 35.20 147.78 35.40Q148.73 35.60 149.74 35.84Q150.74 36.08 151.69 36.39Q152.64 36.71 153.48 37.13Q154.32 37.55 154.95 38.11Q155.59 38.68 155.96 39.41Q156.32 40.14 156.32 41.08Q156.32 42.29 155.89 43.16Q155.47 44.02 154.75 44.62Q154.04 45.22 153.10 45.58Q152.16 45.94 151.13 46.13Q150.10 46.33 149.04 46.39Q147.98 46.45 147.03 46.45Q144.54 46.45 142.42 46.04Q140.31 45.63 138.68 45.02V41.02Q140.35 41.95 142.50 42.47Q144.64 43.00 147.08 43.00Q148.52 43.00 149.43 42.84Q150.34 42.69 150.85 42.45Q151.37 42.22 151.55 41.94Q151.73 41.65 151.73 41.40Q151.73 41.00 151.37 40.70Q151.00 40.40 150.36 40.17Q149.73 39.95 148.89 39.76Q148.05 39.57 147.10 39.38Q146.15 39.19 145.15 38.97Q144.15 38.75 143.21 38.45Q142.26 38.15 141.42 37.75Q140.57 37.36 139.94 36.81Q139.31 36.27 138.94 35.56Q138.57 34.84 138.57 33.90Q138.57 32.79 138.96 31.99Q139.35 31.18 140.02 30.61Q140.68 30.05 141.56 29.69Q142.43 29.34 143.39 29.14Q144.36 28.95 145.35 28.87Q146.34 28.80 147.23 28.80Q148.20 28.80 149.24 28.90Q150.27 29.00 151.27 29.17Q152.27 29.35 153.20 29.58Q154.14 29.81 154.93 30.07ZM177.01 32.88V46.00H172.48V32.88H165.36V29.23H184.13V32.88ZM198.65 46.00H194.13V29.23H205.48Q207.31 29.23 208.58 29.61Q209.86 29.98 210.66 30.68Q211.46 31.38 211.82 32.36Q212.18 33.34 212.18 34.55Q212.18 35.61 211.88 36.41Q211.58 37.20 211.07 37.77Q210.57 38.33 209.90 38.72Q209.23 39.12 208.48 39.37L213.97 46.00H208.68L203.60 39.82H198.65ZM207.60 34.53Q207.60 34.04 207.47 33.70Q207.35 33.35 207.03 33.14Q206.71 32.93 206.18 32.83Q205.65 32.73 204.86 32.73H198.65V36.32H204.86Q205.65 36.32 206.18 36.22Q206.71 36.12 207.03 35.91Q207.35 35.70 207.47 35.36Q207.60 35.01 207.60 34.53ZM237.70 42.83H228.35L226.77 46.00H221.72L230.50 29.23H235.55L244.33 46.00H239.27ZM229.97 39.55H236.10L233.05 33.38ZM254.07 46.00V29.23H271.05V32.80H258.72V35.58H270.42V39.15H258.72V42.42H271.22V46.00ZM302.39 40.35Q302.39 41.61 301.77 42.72Q301.15 43.83 299.90 44.66Q298.66 45.49 296.80 45.97Q294.94 46.45 292.44 46.45Q289.95 46.45 288.08 45.97Q286.21 45.49 284.96 44.66Q283.72 43.83 283.09 42.72Q282.47 41.61 282.47 40.35V29.23H286.99V38.72Q286.99 39.57 287.20 40.32Q287.42 41.07 288.01 41.63Q288.60 42.19 289.67 42.52Q290.74 42.85 292.44 42.85Q294.14 42.85 295.20 42.52Q296.27 42.19 296.86 41.63Q297.45 41.07 297.66 40.32Q297.86 39.57 297.86 38.72V29.23H302.39V40.35ZM329.97 33.95Q329.50 33.72 328.72 33.43Q327.94 33.13 326.95 32.87Q325.96 32.61 324.80 32.43Q323.64 32.25 322.42 32.25Q321.44 32.25 320.75 32.32Q320.06 32.38 319.59 32.47Q319.12 32.57 318.85 32.70Q318.57 32.83 318.43 32.96Q318.28 33.10 318.24 33.23Q318.19 33.37 318.19 33.48Q318.19 33.84 318.56 34.12Q318.93 34.39 319.56 34.60Q320.20 34.82 321.04 35.01Q321.88 35.20 322.83 35.40Q323.77 35.60 324.78 35.84Q325.79 36.08 326.73 36.39Q327.68 36.71 328.52 37.13Q329.36 37.55 330.00 38.11Q330.63 38.68 331.00 39.41Q331.37 40.14 331.37 41.08Q331.37 42.29 330.94 43.16Q330.51 44.02 329.80 44.62Q329.08 45.22 328.14 45.58Q327.20 45.94 326.17 46.13Q325.14 46.33 324.08 46.39Q323.03 46.45 322.08 46.45Q319.59 46.45 317.47 46.04Q315.35 45.63 313.73 45.02V41.02Q315.40 41.95 317.54 42.47Q319.68 43.00 322.13 43.00Q323.57 43.00 324.48 42.84Q325.38 42.69 325.90 42.45Q326.41 42.22 326.59 41.94Q326.78 41.65 326.78 41.40Q326.78 41.00 326.41 40.70Q326.04 40.40 325.41 40.17Q324.77 39.95 323.93 39.76Q323.09 39.57 322.14 39.38Q321.20 39.19 320.20 38.97Q319.20 38.75 318.25 38.45Q317.30 38.15 316.46 37.75Q315.62 37.36 314.98 36.81Q314.35 36.27 313.98 35.56Q313.62 34.84 313.62 33.90Q313.62 32.79 314.01 31.99Q314.40 31.18 315.06 30.61Q315.73 30.05 316.60 29.69Q317.47 29.34 318.44 29.14Q319.40 28.95 320.39 28.87Q321.38 28.80 322.27 28.80Q323.25 28.80 324.28 28.90Q325.31 29.00 326.31 29.17Q327.31 29.35 328.25 29.58Q329.18 29.81 329.97 30.07ZM342.65 46.00V29.23H347.18V46.00ZM381.13 37.63Q381.13 39.79 380.34 41.44Q379.55 43.09 378.07 44.21Q376.59 45.32 374.49 45.88Q372.38 46.45 369.76 46.45Q367.13 46.45 365.01 45.88Q362.90 45.32 361.41 44.21Q359.92 43.09 359.11 41.44Q358.31 39.79 358.31 37.63Q358.31 35.47 359.11 33.81Q359.92 32.16 361.41 31.05Q362.90 29.94 365.01 29.37Q367.13 28.80 369.76 28.80Q372.38 28.80 374.49 29.37Q376.59 29.94 378.07 31.05Q379.55 32.16 380.34 33.81Q381.13 35.47 381.13 37.63ZM376.56 37.63Q376.56 36.69 376.26 35.75Q375.96 34.82 375.19 34.07Q374.43 33.33 373.11 32.87Q371.79 32.40 369.76 32.40Q368.39 32.40 367.35 32.61Q366.31 32.83 365.56 33.21Q364.80 33.59 364.29 34.09Q363.77 34.60 363.47 35.18Q363.16 35.76 363.04 36.39Q362.91 37.02 362.91 37.63Q362.91 38.25 363.04 38.88Q363.16 39.52 363.47 40.10Q363.77 40.68 364.29 41.18Q364.80 41.68 365.56 42.05Q366.31 42.42 367.35 42.64Q368.39 42.85 369.76 42.85Q371.79 42.85 373.11 42.39Q374.43 41.92 375.19 41.18Q375.96 40.43 376.26 39.50Q376.56 38.57 376.56 37.63Z" fill="#0D1421"/>
    <!-- rule -->
    <line x1="107" y1="57" x2="494" y2="57" stroke="rgba(0,0,0,0.07)" stroke-width="0.5"/>
    <!-- tagline (outlined) -->
    <path d="M108.51 69.43V69.14Q108.51 69.05 108.60 69.05H108.88Q108.97 69.05 108.97 69.14V69.41Q108.97 69.97 109.43 70.31Q109.89 70.65 110.69 70.65Q111.44 70.65 111.83 70.34Q112.23 70.03 112.23 69.48Q112.23 69.15 112.05 68.90Q111.88 68.65 111.51 68.44Q111.15 68.22 110.48 67.94Q109.78 67.64 109.43 67.44Q109.07 67.25 108.85 66.95Q108.64 66.64 108.64 66.17Q108.64 65.43 109.15 65.03Q109.66 64.63 110.56 64.63Q111.54 64.63 112.09 65.08Q112.65 65.53 112.65 66.28V66.49Q112.65 66.58 112.56 66.58H112.27Q112.18 66.58 112.18 66.49V66.31Q112.18 65.74 111.74 65.40Q111.31 65.05 110.53 65.05Q109.84 65.05 109.48 65.33Q109.11 65.62 109.11 66.15Q109.11 66.51 109.28 66.73Q109.45 66.96 109.77 67.13Q110.09 67.29 110.75 67.56Q111.42 67.83 111.83 68.08Q112.24 68.33 112.47 68.66Q112.71 68.99 112.71 69.46Q112.71 70.19 112.17 70.63Q111.63 71.07 110.66 71.07Q109.67 71.07 109.09 70.63Q108.51 70.18 108.51 69.43ZM122.40 66.40Q122.40 67.17 121.92 67.63Q121.45 68.10 120.68 68.10H118.81Q118.77 68.10 118.77 68.14V70.91Q118.77 71.00 118.68 71.00H118.38Q118.29 71.00 118.29 70.91V64.77Q118.29 64.68 118.38 64.68H120.70Q121.46 64.68 121.93 65.15Q122.40 65.63 122.40 66.40ZM121.92 66.41Q121.92 65.83 121.57 65.47Q121.23 65.11 120.66 65.11H118.81Q118.77 65.11 118.77 65.15V67.66Q118.77 67.70 118.81 67.70H120.66Q121.23 67.70 121.57 67.34Q121.92 66.99 121.92 66.41ZM131.43 70.93 131.04 69.73Q131.03 69.70 131.01 69.70H128.20Q128.17 69.70 128.16 69.73L127.79 70.93Q127.76 71.00 127.68 71.00H127.36Q127.26 71.00 127.29 70.90L129.29 64.77Q129.31 64.70 129.40 64.70H129.80Q129.88 64.70 129.91 64.77L131.92 70.90L131.93 70.94Q131.93 71.00 131.84 71.00H131.54Q131.46 71.00 131.43 70.93ZM128.34 69.31H130.86Q130.88 69.31 130.89 69.29Q130.91 69.28 130.90 69.26L129.63 65.35Q129.62 65.33 129.60 65.33Q129.59 65.33 129.58 65.35L128.31 69.26Q128.30 69.28 128.31 69.29Q128.33 69.31 128.34 69.31ZM137.17 69.13V66.56Q137.17 65.99 137.43 65.55Q137.68 65.11 138.15 64.87Q138.62 64.63 139.23 64.63Q139.83 64.63 140.30 64.87Q140.77 65.11 141.03 65.54Q141.28 65.97 141.28 66.54V66.55Q141.28 66.59 141.25 66.62Q141.23 66.64 141.19 66.64L140.90 66.66Q140.81 66.66 140.81 66.57V66.55Q140.81 65.87 140.37 65.46Q139.94 65.05 139.23 65.05Q138.51 65.05 138.08 65.46Q137.65 65.87 137.65 66.55V69.16Q137.65 69.83 138.08 70.24Q138.52 70.66 139.23 70.66Q139.94 70.66 140.37 70.24Q140.81 69.83 140.81 69.16V69.14Q140.81 69.06 140.90 69.06L141.19 69.07Q141.28 69.07 141.28 69.16Q141.28 69.72 141.03 70.16Q140.77 70.59 140.30 70.84Q139.83 71.08 139.23 71.08Q138.62 71.08 138.15 70.84Q137.68 70.59 137.43 70.15Q137.17 69.70 137.17 69.13ZM150.96 65.12H147.55Q147.52 65.12 147.52 65.16V67.59Q147.52 67.62 147.55 67.62H149.97Q150.06 67.62 150.06 67.72V67.96Q150.06 68.05 149.97 68.05H147.55Q147.52 68.05 147.52 68.08V70.54Q147.52 70.58 147.55 70.58H150.96Q151.05 70.58 151.05 70.67V70.91Q151.05 71.00 150.96 71.00H147.13Q147.04 71.00 147.04 70.91V64.79Q147.04 64.70 147.13 64.70H150.96Q151.05 64.70 151.05 64.79V65.03Q151.05 65.12 150.96 65.12ZM163.84 70.93 162.08 64.80 162.07 64.77Q162.07 64.70 162.16 64.70H162.47Q162.54 64.70 162.57 64.77L164.06 70.02Q164.07 70.04 164.08 70.04Q164.10 70.04 164.11 70.02L165.49 64.78Q165.51 64.70 165.59 64.70H165.91Q165.99 64.70 166.01 64.78L167.44 70.02Q167.45 70.04 167.46 70.04Q167.47 70.04 167.48 70.02L168.99 64.77Q169.02 64.70 169.09 64.70H169.38Q169.43 64.70 169.45 64.73Q169.47 64.75 169.46 64.80L167.71 70.93Q167.68 71.00 167.61 71.00H167.29Q167.21 71.00 167.19 70.92L165.78 65.58Q165.77 65.56 165.76 65.56Q165.74 65.56 165.74 65.58L164.33 70.92Q164.31 71.00 164.23 71.00H163.94Q163.86 71.00 163.84 70.93ZM178.77 65.12H175.36Q175.33 65.12 175.33 65.16V67.59Q175.33 67.62 175.36 67.62H177.78Q177.87 67.62 177.87 67.72V67.96Q177.87 68.05 177.78 68.05H175.36Q175.33 68.05 175.33 68.08V70.54Q175.33 70.58 175.36 70.58H178.77Q178.86 70.58 178.86 70.67V70.91Q178.86 71.00 178.77 71.00H174.94Q174.85 71.00 174.85 70.91V64.79Q174.85 64.70 174.94 64.70H178.77Q178.86 64.70 178.86 64.79V65.03Q178.86 65.12 178.77 65.12ZM188.11 70.93 187.73 69.73Q187.72 69.70 187.69 69.70H184.88Q184.85 69.70 184.85 69.73L184.47 70.93Q184.44 71.00 184.36 71.00H184.04Q183.95 71.00 183.97 70.90L185.97 64.77Q186.00 64.70 186.08 64.70H186.48Q186.56 64.70 186.59 64.77L188.60 70.90L188.61 70.94Q188.61 71.00 188.53 71.00H188.22Q188.14 71.00 188.11 70.93ZM185.03 69.31H187.55Q187.56 69.31 187.58 69.29Q187.59 69.28 187.58 69.26L186.31 65.35Q186.30 65.33 186.29 65.33Q186.27 65.33 186.26 65.35L184.99 69.26Q184.98 69.28 184.99 69.29Q185.01 69.31 185.03 69.31ZM197.80 64.79V65.03Q197.80 65.12 197.71 65.12H195.91Q195.88 65.12 195.88 65.16V70.91Q195.88 71.00 195.79 71.00H195.49Q195.40 71.00 195.40 70.91V65.16Q195.40 65.12 195.36 65.12H193.65Q193.56 65.12 193.56 65.03V64.79Q193.56 64.70 193.65 64.70H197.71Q197.80 64.70 197.80 64.79ZM207.08 64.70H207.38Q207.47 64.70 207.47 64.79V70.91Q207.47 71.00 207.38 71.00H207.08Q206.99 71.00 206.99 70.91V68.08Q206.99 68.05 206.95 68.05H203.86Q203.82 68.05 203.82 68.08V70.91Q203.82 71.00 203.73 71.00H203.43Q203.34 71.00 203.34 70.91V64.79Q203.34 64.70 203.43 64.70H203.73Q203.82 64.70 203.82 64.79V67.59Q203.82 67.62 203.86 67.62H206.95Q206.99 67.62 206.99 67.59V64.79Q206.99 64.70 207.08 64.70ZM217.42 65.12H214.01Q213.97 65.12 213.97 65.16V67.59Q213.97 67.62 214.01 67.62H216.43Q216.52 67.62 216.52 67.72V67.96Q216.52 68.05 216.43 68.05H214.01Q213.97 68.05 213.97 68.08V70.54Q213.97 70.58 214.01 70.58H217.42Q217.51 70.58 217.51 70.67V70.91Q217.51 71.00 217.42 71.00H213.58Q213.49 71.00 213.49 70.91V64.79Q213.49 64.70 213.58 64.70H217.42Q217.51 64.70 217.51 64.79V65.03Q217.51 65.12 217.42 65.12ZM226.82 70.94 225.44 68.08Q225.43 68.05 225.41 68.05H223.70Q223.67 68.05 223.67 68.08V70.91Q223.67 71.00 223.58 71.00H223.28Q223.19 71.00 223.19 70.91V64.79Q223.19 64.70 223.28 64.70H225.55Q226.31 64.70 226.77 65.17Q227.23 65.64 227.23 66.39Q227.23 67.03 226.88 67.47Q226.53 67.90 225.94 68.01Q225.89 68.03 225.91 68.06L227.29 70.89Q227.30 70.91 227.30 70.94Q227.30 71.00 227.22 71.00H226.93Q226.85 71.00 226.82 70.94ZM223.67 65.16V67.62Q223.67 67.65 223.70 67.65H225.50Q226.06 67.65 226.41 67.30Q226.76 66.95 226.76 66.39Q226.76 65.83 226.41 65.47Q226.06 65.12 225.50 65.12H223.70Q223.67 65.12 223.67 65.16ZM238.90 70.91V64.79Q238.90 64.70 238.99 64.70H239.29Q239.38 64.70 239.38 64.79V70.91Q239.38 71.00 239.29 71.00H238.99Q238.90 71.00 238.90 70.91ZM249.31 64.70H249.61Q249.70 64.70 249.70 64.79V70.91Q249.70 71.00 249.61 71.00H249.31Q249.25 71.00 249.20 70.94L245.94 65.65Q245.93 65.63 245.92 65.63Q245.90 65.64 245.90 65.66V70.91Q245.90 71.00 245.81 71.00H245.51Q245.42 71.00 245.42 70.91V64.79Q245.42 64.70 245.51 64.70H245.82Q245.88 64.70 245.93 64.76L249.17 70.05Q249.18 70.07 249.20 70.07Q249.22 70.06 249.22 70.04V64.79Q249.22 64.70 249.31 64.70ZM259.48 64.79V65.03Q259.48 65.12 259.39 65.12H257.59Q257.55 65.12 257.55 65.16V70.91Q257.55 71.00 257.46 71.00H257.16Q257.07 71.00 257.07 70.91V65.16Q257.07 65.12 257.04 65.12H255.33Q255.24 65.12 255.24 65.03V64.79Q255.24 64.70 255.33 64.70H259.39Q259.48 64.70 259.48 64.79ZM268.94 65.12H265.53Q265.49 65.12 265.49 65.16V67.59Q265.49 67.62 265.53 67.62H267.95Q268.04 67.62 268.04 67.72V67.96Q268.04 68.05 267.95 68.05H265.53Q265.49 68.05 265.49 68.08V70.54Q265.49 70.58 265.53 70.58H268.94Q269.03 70.58 269.03 70.67V70.91Q269.03 71.00 268.94 71.00H265.11Q265.02 71.00 265.02 70.91V64.79Q265.02 64.70 265.11 64.70H268.94Q269.03 64.70 269.03 64.79V65.03Q269.03 65.12 268.94 65.12ZM274.72 70.91V64.79Q274.72 64.70 274.81 64.70H275.10Q275.19 64.70 275.19 64.79V70.54Q275.19 70.58 275.23 70.58H278.46Q278.55 70.58 278.55 70.67V70.91Q278.55 71.00 278.46 71.00H274.81Q274.72 71.00 274.72 70.91ZM284.02 70.91V64.79Q284.02 64.70 284.11 64.70H284.41Q284.50 64.70 284.50 64.79V70.54Q284.50 70.58 284.53 70.58H287.76Q287.85 70.58 287.85 70.67V70.91Q287.85 71.00 287.76 71.00H284.11Q284.02 71.00 284.02 70.91ZM293.32 70.91V64.79Q293.32 64.70 293.41 64.70H293.71Q293.80 64.70 293.80 64.79V70.91Q293.80 71.00 293.71 71.00H293.41Q293.32 71.00 293.32 70.91ZM299.64 69.15V66.55Q299.64 65.98 299.89 65.54Q300.15 65.11 300.62 64.87Q301.09 64.63 301.70 64.63Q302.30 64.63 302.76 64.87Q303.23 65.11 303.48 65.53Q303.74 65.95 303.74 66.50V66.63Q303.74 66.72 303.65 66.72H303.35Q303.26 66.72 303.26 66.63V66.51Q303.26 65.86 302.83 65.46Q302.40 65.05 301.70 65.05Q300.99 65.05 300.55 65.46Q300.11 65.87 300.11 66.54V69.16Q300.11 69.83 300.55 70.24Q300.99 70.65 301.71 70.65Q302.41 70.65 302.84 70.26Q303.26 69.87 303.26 69.22V68.31Q303.26 68.27 303.23 68.27H301.82Q301.73 68.27 301.73 68.18V67.94Q301.73 67.85 301.82 67.85H303.65Q303.74 67.85 303.74 67.94V69.11Q303.74 70.02 303.18 70.55Q302.63 71.07 301.70 71.07Q301.09 71.07 300.62 70.83Q300.15 70.59 299.89 70.15Q299.64 69.71 299.64 69.15ZM313.49 65.12H310.08Q310.05 65.12 310.05 65.16V67.59Q310.05 67.62 310.08 67.62H312.50Q312.59 67.62 312.59 67.72V67.96Q312.59 68.05 312.50 68.05H310.08Q310.05 68.05 310.05 68.08V70.54Q310.05 70.58 310.08 70.58H313.49Q313.58 70.58 313.58 70.67V70.91Q313.58 71.00 313.49 71.00H309.66Q309.57 71.00 309.57 70.91V64.79Q309.57 64.70 309.66 64.70H313.49Q313.58 64.70 313.58 64.79V65.03Q313.58 65.12 313.49 65.12ZM323.16 64.70H323.45Q323.54 64.70 323.54 64.79V70.91Q323.54 71.00 323.45 71.00H323.16Q323.09 71.00 323.05 70.94L319.79 65.65Q319.78 65.63 319.76 65.63Q319.75 65.64 319.75 65.66V70.91Q319.75 71.00 319.66 71.00H319.36Q319.27 71.00 319.27 70.91V64.79Q319.27 64.70 319.36 64.70H319.67Q319.73 64.70 319.77 64.76L323.02 70.05Q323.03 70.07 323.05 70.07Q323.07 70.06 323.07 70.04V64.79Q323.07 64.70 323.16 64.70ZM329.37 69.13V66.56Q329.37 65.99 329.63 65.55Q329.89 65.11 330.35 64.87Q330.82 64.63 331.43 64.63Q332.04 64.63 332.50 64.87Q332.97 65.11 333.23 65.54Q333.49 65.97 333.49 66.54V66.55Q333.49 66.59 333.46 66.62Q333.43 66.64 333.40 66.64L333.10 66.66Q333.01 66.66 333.01 66.57V66.55Q333.01 65.87 332.58 65.46Q332.15 65.05 331.43 65.05Q330.71 65.05 330.28 65.46Q329.85 65.87 329.85 66.55V69.16Q329.85 69.83 330.29 70.24Q330.72 70.66 331.43 70.66Q332.15 70.66 332.58 70.24Q333.01 69.83 333.01 69.16V69.14Q333.01 69.06 333.10 69.06L333.40 69.07Q333.49 69.07 333.49 69.16Q333.49 69.72 333.23 70.16Q332.97 70.59 332.50 70.84Q332.04 71.08 331.43 71.08Q330.82 71.08 330.35 70.84Q329.89 70.59 329.63 70.15Q329.37 69.70 329.37 69.13ZM343.17 65.12H339.76Q339.72 65.12 339.72 65.16V67.59Q339.72 67.62 339.76 67.62H342.18Q342.27 67.62 342.27 67.72V67.96Q342.27 68.05 342.18 68.05H339.76Q339.72 68.05 339.72 68.08V70.54Q339.72 70.58 339.76 70.58H343.17Q343.26 70.58 343.26 70.67V70.91Q343.26 71.00 343.17 71.00H339.33Q339.24 71.00 339.24 70.91V64.79Q339.24 64.70 339.33 64.70H343.17Q343.26 64.70 343.26 64.79V65.03Q343.26 65.12 343.17 65.12Z" fill="#0D1421" opacity="0.42"/>
  </g>
  <!-- ===== BLACK variant ===== -->
  <g transform="translate(0,220)">
    <rect x="0" y="0" width="510" height="100" fill="#04060A"/>
    <!-- corona glow -->
    <circle cx="52" cy="50" r="24" fill="#D97706" opacity="0.07"/>
    <circle cx="52" cy="50" r="18" fill="#D97706" opacity="0.12"/>
    <!-- sun -->
    <circle cx="52" cy="50" r="11" fill="#D97706"/>
    <circle cx="52" cy="50" r="6.5" fill="#FAC775" opacity="0.4"/>
    <!-- orbit ring -->
    <circle cx="52" cy="50" r="29" fill="none" stroke="rgba(255,255,255,0.14)" stroke-width="0.8"/>
    <!-- alert arc -->
    <path d="M 57.0 21.4 A 29 29 0 0 1 80.6 45.0" fill="none" stroke="#D97706" stroke-width="2.2" stroke-linecap="round" opacity="0.65"/>
    <!-- earth -->
    <circle cx="72.5" cy="29.5" r="3.5" fill="#8FBCD4" opacity="1"/>
    <!-- CME indicator -->
    <line x1="59.8" y1="42.2" x2="66.5" y2="35.5" stroke="#D97706" stroke-width="1.2" stroke-linecap="round" opacity="0.45"/>
    <!-- wordmark (outlined) -->
    <path d="M123.10 42.83H113.75L112.18 46.00H107.12L115.90 29.23H120.95L129.73 46.00H124.68ZM115.37 39.55H121.50L118.45 33.38ZM154.93 33.95Q154.45 33.72 153.67 33.43Q152.89 33.13 151.90 32.87Q150.91 32.61 149.75 32.43Q148.59 32.25 147.37 32.25Q146.40 32.25 145.71 32.32Q145.02 32.38 144.55 32.47Q144.08 32.57 143.80 32.70Q143.53 32.83 143.38 32.96Q143.24 33.10 143.19 33.23Q143.15 33.37 143.15 33.48Q143.15 33.84 143.52 34.12Q143.88 34.39 144.52 34.60Q145.15 34.82 145.99 35.01Q146.84 35.20 147.78 35.40Q148.73 35.60 149.74 35.84Q150.74 36.08 151.69 36.39Q152.64 36.71 153.48 37.13Q154.32 37.55 154.95 38.11Q155.59 38.68 155.96 39.41Q156.32 40.14 156.32 41.08Q156.32 42.29 155.89 43.16Q155.47 44.02 154.75 44.62Q154.04 45.22 153.10 45.58Q152.16 45.94 151.13 46.13Q150.10 46.33 149.04 46.39Q147.98 46.45 147.03 46.45Q144.54 46.45 142.42 46.04Q140.31 45.63 138.68 45.02V41.02Q140.35 41.95 142.50 42.47Q144.64 43.00 147.08 43.00Q148.52 43.00 149.43 42.84Q150.34 42.69 150.85 42.45Q151.37 42.22 151.55 41.94Q151.73 41.65 151.73 41.40Q151.73 41.00 151.37 40.70Q151.00 40.40 150.36 40.17Q149.73 39.95 148.89 39.76Q148.05 39.57 147.10 39.38Q146.15 39.19 145.15 38.97Q144.15 38.75 143.21 38.45Q142.26 38.15 141.42 37.75Q140.57 37.36 139.94 36.81Q139.31 36.27 138.94 35.56Q138.57 34.84 138.57 33.90Q138.57 32.79 138.96 31.99Q139.35 31.18 140.02 30.61Q140.68 30.05 141.56 29.69Q142.43 29.34 143.39 29.14Q144.36 28.95 145.35 28.87Q146.34 28.80 147.23 28.80Q148.20 28.80 149.24 28.90Q150.27 29.00 151.27 29.17Q152.27 29.35 153.20 29.58Q154.14 29.81 154.93 30.07ZM177.01 32.88V46.00H172.48V32.88H165.36V29.23H184.13V32.88ZM198.65 46.00H194.13V29.23H205.48Q207.31 29.23 208.58 29.61Q209.86 29.98 210.66 30.68Q211.46 31.38 211.82 32.36Q212.18 33.34 212.18 34.55Q212.18 35.61 211.88 36.41Q211.58 37.20 211.07 37.77Q210.57 38.33 209.90 38.72Q209.23 39.12 208.48 39.37L213.97 46.00H208.68L203.60 39.82H198.65ZM207.60 34.53Q207.60 34.04 207.47 33.70Q207.35 33.35 207.03 33.14Q206.71 32.93 206.18 32.83Q205.65 32.73 204.86 32.73H198.65V36.32H204.86Q205.65 36.32 206.18 36.22Q206.71 36.12 207.03 35.91Q207.35 35.70 207.47 35.36Q207.60 35.01 207.60 34.53ZM237.70 42.83H228.35L226.77 46.00H221.72L230.50 29.23H235.55L244.33 46.00H239.27ZM229.97 39.55H236.10L233.05 33.38ZM254.07 46.00V29.23H271.05V32.80H258.72V35.58H270.42V39.15H258.72V42.42H271.22V46.00ZM302.39 40.35Q302.39 41.61 301.77 42.72Q301.15 43.83 299.90 44.66Q298.66 45.49 296.80 45.97Q294.94 46.45 292.44 46.45Q289.95 46.45 288.08 45.97Q286.21 45.49 284.96 44.66Q283.72 43.83 283.09 42.72Q282.47 41.61 282.47 40.35V29.23H286.99V38.72Q286.99 39.57 287.20 40.32Q287.42 41.07 288.01 41.63Q288.60 42.19 289.67 42.52Q290.74 42.85 292.44 42.85Q294.14 42.85 295.20 42.52Q296.27 42.19 296.86 41.63Q297.45 41.07 297.66 40.32Q297.86 39.57 297.86 38.72V29.23H302.39V40.35ZM329.97 33.95Q329.50 33.72 328.72 33.43Q327.94 33.13 326.95 32.87Q325.96 32.61 324.80 32.43Q323.64 32.25 322.42 32.25Q321.44 32.25 320.75 32.32Q320.06 32.38 319.59 32.47Q319.12 32.57 318.85 32.70Q318.57 32.83 318.43 32.96Q318.28 33.10 318.24 33.23Q318.19 33.37 318.19 33.48Q318.19 33.84 318.56 34.12Q318.93 34.39 319.56 34.60Q320.20 34.82 321.04 35.01Q321.88 35.20 322.83 35.40Q323.77 35.60 324.78 35.84Q325.79 36.08 326.73 36.39Q327.68 36.71 328.52 37.13Q329.36 37.55 330.00 38.11Q330.63 38.68 331.00 39.41Q331.37 40.14 331.37 41.08Q331.37 42.29 330.94 43.16Q330.51 44.02 329.80 44.62Q329.08 45.22 328.14 45.58Q327.20 45.94 326.17 46.13Q325.14 46.33 324.08 46.39Q323.03 46.45 322.08 46.45Q319.59 46.45 317.47 46.04Q315.35 45.63 313.73 45.02V41.02Q315.40 41.95 317.54 42.47Q319.68 43.00 322.13 43.00Q323.57 43.00 324.48 42.84Q325.38 42.69 325.90 42.45Q326.41 42.22 326.59 41.94Q326.78 41.65 326.78 41.40Q326.78 41.00 326.41 40.70Q326.04 40.40 325.41 40.17Q324.77 39.95 323.93 39.76Q323.09 39.57 322.14 39.38Q321.20 39.19 320.20 38.97Q319.20 38.75 318.25 38.45Q317.30 38.15 316.46 37.75Q315.62 37.36 314.98 36.81Q314.35 36.27 313.98 35.56Q313.62 34.84 313.62 33.90Q313.62 32.79 314.01 31.99Q314.40 31.18 315.06 30.61Q315.73 30.05 316.60 29.69Q317.47 29.34 318.44 29.14Q319.40 28.95 320.39 28.87Q321.38 28.80 322.27 28.80Q323.25 28.80 324.28 28.90Q325.31 29.00 326.31 29.17Q327.31 29.35 328.25 29.58Q329.18 29.81 329.97 30.07ZM342.65 46.00V29.23H347.18V46.00ZM381.13 37.63Q381.13 39.79 380.34 41.44Q379.55 43.09 378.07 44.21Q376.59 45.32 374.49 45.88Q372.38 46.45 369.76 46.45Q367.13 46.45 365.01 45.88Q362.90 45.32 361.41 44.21Q359.92 43.09 359.11 41.44Q358.31 39.79 358.31 37.63Q358.31 35.47 359.11 33.81Q359.92 32.16 361.41 31.05Q362.90 29.94 365.01 29.37Q367.13 28.80 369.76 28.80Q372.38 28.80 374.49 29.37Q376.59 29.94 378.07 31.05Q379.55 32.16 380.34 33.81Q381.13 35.47 381.13 37.63ZM376.56 37.63Q376.56 36.69 376.26 35.75Q375.96 34.82 375.19 34.07Q374.43 33.33 373.11 32.87Q371.79 32.40 369.76 32.40Q368.39 32.40 367.35 32.61Q366.31 32.83 365.56 33.21Q364.80 33.59 364.29 34.09Q363.77 34.60 363.47 35.18Q363.16 35.76 363.04 36.39Q362.91 37.02 362.91 37.63Q362.91 38.25 363.04 38.88Q363.16 39.52 363.47 40.10Q363.77 40.68 364.29 41.18Q364.80 41.68 365.56 42.05Q366.31 42.42 367.35 42.64Q368.39 42.85 369.76 42.85Q371.79 42.85 373.11 42.39Q374.43 41.92 375.19 41.18Q375.96 40.43 376.26 39.50Q376.56 38.57 376.56 37.63Z" fill="#FFFFFF"/>
    <!-- rule -->
    <line x1="107" y1="57" x2="494" y2="57" stroke="rgba(255,255,255,0.08)" stroke-width="0.5"/>
    <!-- tagline (outlined) -->
    <path d="M108.51 69.43V69.14Q108.51 69.05 108.60 69.05H108.88Q108.97 69.05 108.97 69.14V69.41Q108.97 69.97 109.43 70.31Q109.89 70.65 110.69 70.65Q111.44 70.65 111.83 70.34Q112.23 70.03 112.23 69.48Q112.23 69.15 112.05 68.90Q111.88 68.65 111.51 68.44Q111.15 68.22 110.48 67.94Q109.78 67.64 109.43 67.44Q109.07 67.25 108.85 66.95Q108.64 66.64 108.64 66.17Q108.64 65.43 109.15 65.03Q109.66 64.63 110.56 64.63Q111.54 64.63 112.09 65.08Q112.65 65.53 112.65 66.28V66.49Q112.65 66.58 112.56 66.58H112.27Q112.18 66.58 112.18 66.49V66.31Q112.18 65.74 111.74 65.40Q111.31 65.05 110.53 65.05Q109.84 65.05 109.48 65.33Q109.11 65.62 109.11 66.15Q109.11 66.51 109.28 66.73Q109.45 66.96 109.77 67.13Q110.09 67.29 110.75 67.56Q111.42 67.83 111.83 68.08Q112.24 68.33 112.47 68.66Q112.71 68.99 112.71 69.46Q112.71 70.19 112.17 70.63Q111.63 71.07 110.66 71.07Q109.67 71.07 109.09 70.63Q108.51 70.18 108.51 69.43ZM122.40 66.40Q122.40 67.17 121.92 67.63Q121.45 68.10 120.68 68.10H118.81Q118.77 68.10 118.77 68.14V70.91Q118.77 71.00 118.68 71.00H118.38Q118.29 71.00 118.29 70.91V64.77Q118.29 64.68 118.38 64.68H120.70Q121.46 64.68 121.93 65.15Q122.40 65.63 122.40 66.40ZM121.92 66.41Q121.92 65.83 121.57 65.47Q121.23 65.11 120.66 65.11H118.81Q118.77 65.11 118.77 65.15V67.66Q118.77 67.70 118.81 67.70H120.66Q121.23 67.70 121.57 67.34Q121.92 66.99 121.92 66.41ZM131.43 70.93 131.04 69.73Q131.03 69.70 131.01 69.70H128.20Q128.17 69.70 128.16 69.73L127.79 70.93Q127.76 71.00 127.68 71.00H127.36Q127.26 71.00 127.29 70.90L129.29 64.77Q129.31 64.70 129.40 64.70H129.80Q129.88 64.70 129.91 64.77L131.92 70.90L131.93 70.94Q131.93 71.00 131.84 71.00H131.54Q131.46 71.00 131.43 70.93ZM128.34 69.31H130.86Q130.88 69.31 130.89 69.29Q130.91 69.28 130.90 69.26L129.63 65.35Q129.62 65.33 129.60 65.33Q129.59 65.33 129.58 65.35L128.31 69.26Q128.30 69.28 128.31 69.29Q128.33 69.31 128.34 69.31ZM137.17 69.13V66.56Q137.17 65.99 137.43 65.55Q137.68 65.11 138.15 64.87Q138.62 64.63 139.23 64.63Q139.83 64.63 140.30 64.87Q140.77 65.11 141.03 65.54Q141.28 65.97 141.28 66.54V66.55Q141.28 66.59 141.25 66.62Q141.23 66.64 141.19 66.64L140.90 66.66Q140.81 66.66 140.81 66.57V66.55Q140.81 65.87 140.37 65.46Q139.94 65.05 139.23 65.05Q138.51 65.05 138.08 65.46Q137.65 65.87 137.65 66.55V69.16Q137.65 69.83 138.08 70.24Q138.52 70.66 139.23 70.66Q139.94 70.66 140.37 70.24Q140.81 69.83 140.81 69.16V69.14Q140.81 69.06 140.90 69.06L141.19 69.07Q141.28 69.07 141.28 69.16Q141.28 69.72 141.03 70.16Q140.77 70.59 140.30 70.84Q139.83 71.08 139.23 71.08Q138.62 71.08 138.15 70.84Q137.68 70.59 137.43 70.15Q137.17 69.70 137.17 69.13ZM150.96 65.12H147.55Q147.52 65.12 147.52 65.16V67.59Q147.52 67.62 147.55 67.62H149.97Q150.06 67.62 150.06 67.72V67.96Q150.06 68.05 149.97 68.05H147.55Q147.52 68.05 147.52 68.08V70.54Q147.52 70.58 147.55 70.58H150.96Q151.05 70.58 151.05 70.67V70.91Q151.05 71.00 150.96 71.00H147.13Q147.04 71.00 147.04 70.91V64.79Q147.04 64.70 147.13 64.70H150.96Q151.05 64.70 151.05 64.79V65.03Q151.05 65.12 150.96 65.12ZM163.84 70.93 162.08 64.80 162.07 64.77Q162.07 64.70 162.16 64.70H162.47Q162.54 64.70 162.57 64.77L164.06 70.02Q164.07 70.04 164.08 70.04Q164.10 70.04 164.11 70.02L165.49 64.78Q165.51 64.70 165.59 64.70H165.91Q165.99 64.70 166.01 64.78L167.44 70.02Q167.45 70.04 167.46 70.04Q167.47 70.04 167.48 70.02L168.99 64.77Q169.02 64.70 169.09 64.70H169.38Q169.43 64.70 169.45 64.73Q169.47 64.75 169.46 64.80L167.71 70.93Q167.68 71.00 167.61 71.00H167.29Q167.21 71.00 167.19 70.92L165.78 65.58Q165.77 65.56 165.76 65.56Q165.74 65.56 165.74 65.58L164.33 70.92Q164.31 71.00 164.23 71.00H163.94Q163.86 71.00 163.84 70.93ZM178.77 65.12H175.36Q175.33 65.12 175.33 65.16V67.59Q175.33 67.62 175.36 67.62H177.78Q177.87 67.62 177.87 67.72V67.96Q177.87 68.05 177.78 68.05H175.36Q175.33 68.05 175.33 68.08V70.54Q175.33 70.58 175.36 70.58H178.77Q178.86 70.58 178.86 70.67V70.91Q178.86 71.00 178.77 71.00H174.94Q174.85 71.00 174.85 70.91V64.79Q174.85 64.70 174.94 64.70H178.77Q178.86 64.70 178.86 64.79V65.03Q178.86 65.12 178.77 65.12ZM188.11 70.93 187.73 69.73Q187.72 69.70 187.69 69.70H184.88Q184.85 69.70 184.85 69.73L184.47 70.93Q184.44 71.00 184.36 71.00H184.04Q183.95 71.00 183.97 70.90L185.97 64.77Q186.00 64.70 186.08 64.70H186.48Q186.56 64.70 186.59 64.77L188.60 70.90L188.61 70.94Q188.61 71.00 188.53 71.00H188.22Q188.14 71.00 188.11 70.93ZM185.03 69.31H187.55Q187.56 69.31 187.58 69.29Q187.59 69.28 187.58 69.26L186.31 65.35Q186.30 65.33 186.29 65.33Q186.27 65.33 186.26 65.35L184.99 69.26Q184.98 69.28 184.99 69.29Q185.01 69.31 185.03 69.31ZM197.80 64.79V65.03Q197.80 65.12 197.71 65.12H195.91Q195.88 65.12 195.88 65.16V70.91Q195.88 71.00 195.79 71.00H195.49Q195.40 71.00 195.40 70.91V65.16Q195.40 65.12 195.36 65.12H193.65Q193.56 65.12 193.56 65.03V64.79Q193.56 64.70 193.65 64.70H197.71Q197.80 64.70 197.80 64.79ZM207.08 64.70H207.38Q207.47 64.70 207.47 64.79V70.91Q207.47 71.00 207.38 71.00H207.08Q206.99 71.00 206.99 70.91V68.08Q206.99 68.05 206.95 68.05H203.86Q203.82 68.05 203.82 68.08V70.91Q203.82 71.00 203.73 71.00H203.43Q203.34 71.00 203.34 70.91V64.79Q203.34 64.70 203.43 64.70H203.73Q203.82 64.70 203.82 64.79V67.59Q203.82 67.62 203.86 67.62H206.95Q206.99 67.62 206.99 67.59V64.79Q206.99 64.70 207.08 64.70ZM217.42 65.12H214.01Q213.97 65.12 213.97 65.16V67.59Q213.97 67.62 214.01 67.62H216.43Q216.52 67.62 216.52 67.72V67.96Q216.52 68.05 216.43 68.05H214.01Q213.97 68.05 213.97 68.08V70.54Q213.97 70.58 214.01 70.58H217.42Q217.51 70.58 217.51 70.67V70.91Q217.51 71.00 217.42 71.00H213.58Q213.49 71.00 213.49 70.91V64.79Q213.49 64.70 213.58 64.70H217.42Q217.51 64.70 217.51 64.79V65.03Q217.51 65.12 217.42 65.12ZM226.82 70.94 225.44 68.08Q225.43 68.05 225.41 68.05H223.70Q223.67 68.05 223.67 68.08V70.91Q223.67 71.00 223.58 71.00H223.28Q223.19 71.00 223.19 70.91V64.79Q223.19 64.70 223.28 64.70H225.55Q226.31 64.70 226.77 65.17Q227.23 65.64 227.23 66.39Q227.23 67.03 226.88 67.47Q226.53 67.90 225.94 68.01Q225.89 68.03 225.91 68.06L227.29 70.89Q227.30 70.91 227.30 70.94Q227.30 71.00 227.22 71.00H226.93Q226.85 71.00 226.82 70.94ZM223.67 65.16V67.62Q223.67 67.65 223.70 67.65H225.50Q226.06 67.65 226.41 67.30Q226.76 66.95 226.76 66.39Q226.76 65.83 226.41 65.47Q226.06 65.12 225.50 65.12H223.70Q223.67 65.12 223.67 65.16ZM238.90 70.91V64.79Q238.90 64.70 238.99 64.70H239.29Q239.38 64.70 239.38 64.79V70.91Q239.38 71.00 239.29 71.00H238.99Q238.90 71.00 238.90 70.91ZM249.31 64.70H249.61Q249.70 64.70 249.70 64.79V70.91Q249.70 71.00 249.61 71.00H249.31Q249.25 71.00 249.20 70.94L245.94 65.65Q245.93 65.63 245.92 65.63Q245.90 65.64 245.90 65.66V70.91Q245.90 71.00 245.81 71.00H245.51Q245.42 71.00 245.42 70.91V64.79Q245.42 64.70 245.51 64.70H245.82Q245.88 64.70 245.93 64.76L249.17 70.05Q249.18 70.07 249.20 70.07Q249.22 70.06 249.22 70.04V64.79Q249.22 64.70 249.31 64.70ZM259.48 64.79V65.03Q259.48 65.12 259.39 65.12H257.59Q257.55 65.12 257.55 65.16V70.91Q257.55 71.00 257.46 71.00H257.16Q257.07 71.00 257.07 70.91V65.16Q257.07 65.12 257.04 65.12H255.33Q255.24 65.12 255.24 65.03V64.79Q255.24 64.70 255.33 64.70H259.39Q259.48 64.70 259.48 64.79ZM268.94 65.12H265.53Q265.49 65.12 265.49 65.16V67.59Q265.49 67.62 265.53 67.62H267.95Q268.04 67.62 268.04 67.72V67.96Q268.04 68.05 267.95 68.05H265.53Q265.49 68.05 265.49 68.08V70.54Q265.49 70.58 265.53 70.58H268.94Q269.03 70.58 269.03 70.67V70.91Q269.03 71.00 268.94 71.00H265.11Q265.02 71.00 265.02 70.91V64.79Q265.02 64.70 265.11 64.70H268.94Q269.03 64.70 269.03 64.79V65.03Q269.03 65.12 268.94 65.12ZM274.72 70.91V64.79Q274.72 64.70 274.81 64.70H275.10Q275.19 64.70 275.19 64.79V70.54Q275.19 70.58 275.23 70.58H278.46Q278.55 70.58 278.55 70.67V70.91Q278.55 71.00 278.46 71.00H274.81Q274.72 71.00 274.72 70.91ZM284.02 70.91V64.79Q284.02 64.70 284.11 64.70H284.41Q284.50 64.70 284.50 64.79V70.54Q284.50 70.58 284.53 70.58H287.76Q287.85 70.58 287.85 70.67V70.91Q287.85 71.00 287.76 71.00H284.11Q284.02 71.00 284.02 70.91ZM293.32 70.91V64.79Q293.32 64.70 293.41 64.70H293.71Q293.80 64.70 293.80 64.79V70.91Q293.80 71.00 293.71 71.00H293.41Q293.32 71.00 293.32 70.91ZM299.64 69.15V66.55Q299.64 65.98 299.89 65.54Q300.15 65.11 300.62 64.87Q301.09 64.63 301.70 64.63Q302.30 64.63 302.76 64.87Q303.23 65.11 303.48 65.53Q303.74 65.95 303.74 66.50V66.63Q303.74 66.72 303.65 66.72H303.35Q303.26 66.72 303.26 66.63V66.51Q303.26 65.86 302.83 65.46Q302.40 65.05 301.70 65.05Q300.99 65.05 300.55 65.46Q300.11 65.87 300.11 66.54V69.16Q300.11 69.83 300.55 70.24Q300.99 70.65 301.71 70.65Q302.41 70.65 302.84 70.26Q303.26 69.87 303.26 69.22V68.31Q303.26 68.27 303.23 68.27H301.82Q301.73 68.27 301.73 68.18V67.94Q301.73 67.85 301.82 67.85H303.65Q303.74 67.85 303.74 67.94V69.11Q303.74 70.02 303.18 70.55Q302.63 71.07 301.70 71.07Q301.09 71.07 300.62 70.83Q300.15 70.59 299.89 70.15Q299.64 69.71 299.64 69.15ZM313.49 65.12H310.08Q310.05 65.12 310.05 65.16V67.59Q310.05 67.62 310.08 67.62H312.50Q312.59 67.62 312.59 67.72V67.96Q312.59 68.05 312.50 68.05H310.08Q310.05 68.05 310.05 68.08V70.54Q310.05 70.58 310.08 70.58H313.49Q313.58 70.58 313.58 70.67V70.91Q313.58 71.00 313.49 71.00H309.66Q309.57 71.00 309.57 70.91V64.79Q309.57 64.70 309.66 64.70H313.49Q313.58 64.70 313.58 64.79V65.03Q313.58 65.12 313.49 65.12ZM323.16 64.70H323.45Q323.54 64.70 323.54 64.79V70.91Q323.54 71.00 323.45 71.00H323.16Q323.09 71.00 323.05 70.94L319.79 65.65Q319.78 65.63 319.76 65.63Q319.75 65.64 319.75 65.66V70.91Q319.75 71.00 319.66 71.00H319.36Q319.27 71.00 319.27 70.91V64.79Q319.27 64.70 319.36 64.70H319.67Q319.73 64.70 319.77 64.76L323.02 70.05Q323.03 70.07 323.05 70.07Q323.07 70.06 323.07 70.04V64.79Q323.07 64.70 323.16 64.70ZM329.37 69.13V66.56Q329.37 65.99 329.63 65.55Q329.89 65.11 330.35 64.87Q330.82 64.63 331.43 64.63Q332.04 64.63 332.50 64.87Q332.97 65.11 333.23 65.54Q333.49 65.97 333.49 66.54V66.55Q333.49 66.59 333.46 66.62Q333.43 66.64 333.40 66.64L333.10 66.66Q333.01 66.66 333.01 66.57V66.55Q333.01 65.87 332.58 65.46Q332.15 65.05 331.43 65.05Q330.71 65.05 330.28 65.46Q329.85 65.87 329.85 66.55V69.16Q329.85 69.83 330.29 70.24Q330.72 70.66 331.43 70.66Q332.15 70.66 332.58 70.24Q333.01 69.83 333.01 69.16V69.14Q333.01 69.06 333.10 69.06L333.40 69.07Q333.49 69.07 333.49 69.16Q333.49 69.72 333.23 70.16Q332.97 70.59 332.50 70.84Q332.04 71.08 331.43 71.08Q330.82 71.08 330.35 70.84Q329.89 70.59 329.63 70.15Q329.37 69.70 329.37 69.13ZM343.17 65.12H339.76Q339.72 65.12 339.72 65.16V67.59Q339.72 67.62 339.76 67.62H342.18Q342.27 67.62 342.27 67.72V67.96Q342.27 68.05 342.18 68.05H339.76Q339.72 68.05 339.72 68.08V70.54Q339.72 70.58 339.76 70.58H343.17Q343.26 70.58 343.26 70.67V70.91Q343.26 71.00 343.17 71.00H339.33Q339.24 71.00 339.24 70.91V64.79Q339.24 64.70 339.33 64.70H343.17Q343.26 64.70 343.26 64.79V65.03Q343.26 65.12 343.17 65.12Z" fill="#FFFFFF" opacity="0.48"/>
  </g>
</svg>
